<svg xmlns="http://www.w3.org/2000/svg" width="512" height="512" viewBox="0 0 512 512">
  <defs>
    <radialGradient id="bg" cx="48%" cy="42%" r="72%">
      <stop offset="0%" stop-color="#163a78"/>
      <stop offset="42%" stop-color="#0a1a3b"/>
      <stop offset="100%" stop-color="#030713"/>
    </radialGradient>
    <linearGradient id="mouse" x1="156" y1="72" x2="354" y2="414" gradientUnits="userSpaceOnUse">
      <stop offset="0%" stop-color="#ffffff"/>
      <stop offset="58%" stop-color="#eff3ff"/>
      <stop offset="100%" stop-color="#dfe7ff"/>
    </linearGradient>
    <linearGradient id="trail" x1="70" y1="350" x2="430" y2="286" gradientUnits="userSpaceOnUse">
      <stop offset="0%" stop-color="#1fe7ff"/>
      <stop offset="55%" stop-color="#eef7ff"/>
      <stop offset="100%" stop-color="#bb55ff"/>
    </linearGradient>
    <filter id="blur" x="-50%" y="-50%" width="200%" height="200%">
      <feGaussianBlur stdDeviation="10"/>
    </filter>
    <filter id="softShadow" x="-50%" y="-50%" width="200%" height="200%">
      <feDropShadow dx="0" dy="18" stdDeviation="22" flood-color="#02040c" flood-opacity="0.55"/>
    </filter>
  </defs>
  <rect x="10" y="10" width="492" height="492" rx="105" fill="url(#bg)"/>
  <rect x="13" y="13" width="486" height="486" rx="101" fill="none" stroke="#18315f" stroke-width="4" opacity="0.8"/>
  <ellipse cx="256" cy="424" rx="95" ry="24" fill="#1f5cff" opacity="0.25" filter="url(#blur)"/>
  <path d="M78 354 C145 260 245 400 426 194" fill="none" stroke="url(#trail)" stroke-width="5" stroke-linecap="round" opacity="0.95" filter="url(#blur)"/>
  <path d="M78 354 C145 260 245 400 426 194" fill="none" stroke="url(#trail)" stroke-width="3.2" stroke-linecap="round" opacity="0.98"/>
  <path d="M330 160 C395 178 429 221 426 290" fill="none" stroke="#9064ff" stroke-width="3" opacity="0.55"/>
  <path d="M350 178 C404 199 427 239 415 298" fill="none" stroke="#a86bff" stroke-width="2" opacity="0.36"/>
  <rect x="166" y="76" width="180" height="360" rx="86" fill="url(#mouse)" stroke="#f9fbff" stroke-width="4" filter="url(#softShadow)"/>
  <path d="M182 124 C212 94 302 89 333 132" fill="none" stroke="#ffffff" stroke-width="4" opacity="0.75"/>
  <path d="M186 397 C228 430 294 426 333 394" fill="none" stroke="#c7d5ff" stroke-width="3" opacity="0.6"/>
  <path d="M198 388 C218 276 267 205 340 174 C336 286 310 374 198 388Z" fill="#ffffff" opacity="0.18"/>
</svg>
