<svg xmlns="http://www.w3.org/2000/svg" viewBox="0 0 256 256">
  <defs>
    <linearGradient id="bg" x1="0" y1="0" x2="1" y2="1">
      <stop offset="0" stop-color="#ffffff"/>
      <stop offset="1" stop-color="#e8eef8"/>
    </linearGradient>
    <linearGradient id="mouse" x1="0" y1="0" x2="0" y2="1">
      <stop offset="0" stop-color="#ffffff"/>
      <stop offset="1" stop-color="#e9edf4"/>
    </linearGradient>
  </defs>
  <rect x="18" y="18" width="220" height="220" rx="48" fill="url(#bg)"/>
  <path d="M67 101c-19 20-19 54 0 74" fill="none" stroke="#7fb0ff" stroke-width="9" stroke-linecap="round" opacity="0.65"/>
  <path d="M86 116c-11 12-11 32 0 44" fill="none" stroke="#7fb0ff" stroke-width="8" stroke-linecap="round" opacity="0.48"/>
  <path d="M189 101c19 20 19 54 0 74" fill="none" stroke="#7fb0ff" stroke-width="9" stroke-linecap="round" opacity="0.65"/>
  <path d="M170 116c11 12 11 32 0 44" fill="none" stroke="#7fb0ff" stroke-width="8" stroke-linecap="round" opacity="0.48"/>
  <rect x="91" y="43" width="74" height="169" rx="37" fill="url(#mouse)" stroke="#aab2bd" stroke-width="4"/>
  <path d="M128 48v41" stroke="#c7cdd6" stroke-width="3" stroke-linecap="round" opacity="0.55"/>
  <path d="M106 57c14-9 30-9 44 0" fill="none" stroke="#ffffff" stroke-width="5" stroke-linecap="round" opacity="0.7"/>
</svg>
